<?xml version="1.0" encoding="UTF-8"?><svg id="a" xmlns="http://www.w3.org/2000/svg" xmlns:xlink="http://www.w3.org/1999/xlink" viewBox="0 0 152.69 155.3"><defs><style>.h{fill:url(#c);}.i{fill:url(#d);}.j{fill:url(#g);}.k{fill:url(#e);}.l{fill:url(#f);}.m{fill:url(#b);}.n{fill:#f9c;}</style><linearGradient id="b" x1="76.35" y1="28.24" x2="76.35" y2="138.16" gradientUnits="userSpaceOnUse"><stop offset="0" stop-color="#ff73ad"/><stop offset="0" stop-color="#ff6fac"/><stop offset=".22" stop-color="#ff1f9e"/><stop offset=".31" stop-color="#f09"/><stop offset=".41" stop-color="#d50080"/><stop offset=".71" stop-color="#63003b"/><stop offset=".91" stop-color="#1c0010"/><stop offset="1" stop-color="#000"/></linearGradient><linearGradient id="c" x1="107.53" y1="7.94" x2="107.53" y2="34.29" gradientTransform="translate(39.09 -23.42) rotate(18.35)" xlink:href="#b"/><linearGradient id="d" x1="-18.09" y1="26.51" x2="-18.09" y2="52.85" gradientTransform="translate(24.88 -12.34) rotate(-13.67)" xlink:href="#b"/><linearGradient id="e" x1="77.01" y1="138.72" x2="77.01" y2="165.07" gradientTransform="translate(24.88 -12.34) rotate(-13.67)" xlink:href="#b"/><linearGradient id="f" x1="-35.46" y1="116.97" x2="-35.46" y2="143.31" gradientTransform="translate(105.26 15.19) rotate(22.48)" xlink:href="#b"/><linearGradient id="g" x1="17.35" y1="-3.33" x2="17.35" y2="23.02" gradientTransform="translate(58.24 4.28) rotate(-2.35)" xlink:href="#b"/></defs><circle class="n" cx="76.35" cy="78.95" r="76.35"/><path class="m" d="M125.54,38.66c13.52,13.52,13.9,35.23,1.11,49.2-.36.4-.72.78-1.11,1.17l-48.02,48.02c-.39.39-.78.76-1.18,1.12-.4-.36-.78-.72-1.17-1.11l-48.02-48.02c-.39-.39-.76-.78-1.12-1.18-12.78-13.98-12.4-35.66,1.12-49.19,6.96-6.96,16.07-10.43,25.18-10.43,8.61,0,17.22,3.11,24,9.31,13.98-12.78,35.68-12.4,49.2,1.11Z"/><path class="h" d="M149.06,24.07c2.06,4.1.5,9.06-3.46,11.27-.11.06-.22.12-.34.18l-14.55,7.3c-.12.06-.24.11-.35.17-.06-.11-.12-.22-.18-.34l-7.3-14.55c-.06-.12-.11-.24-.17-.35-1.85-4.14-.13-9.05,3.97-11.1,2.11-1.06,4.44-1.16,6.52-.47,1.96.65,3.68,2.01,4.76,3.93,4.14-1.85,9.05-.13,11.11,3.97Z"/><path class="i" d="M25.61,17.34c3.91,2.38,5.23,7.42,3.04,11.39-.06.11-.12.22-.19.33l-8.46,13.9c-.07.11-.14.22-.21.33-.11-.06-.22-.12-.33-.19l-13.9-8.46c-.11-.07-.22-.14-.33-.21-3.77-2.53-4.91-7.6-2.53-11.52,1.23-2.01,3.15-3.34,5.27-3.86,2-.49,4.19-.25,6.12.81,2.53-3.77,7.61-4.91,11.52-2.53Z"/><path class="k" d="M144.53,103.9c3.91,2.38,5.23,7.42,3.04,11.39-.06.11-.12.22-.19.33l-8.46,13.9c-.07.11-.14.22-.21.33-.11-.06-.22-.12-.33-.19l-13.9-8.46c-.11-.07-.22-.14-.33-.21-3.77-2.53-4.91-7.6-2.53-11.52,1.23-2.01,3.15-3.34,5.27-3.86,2-.49,4.19-.25,6.12.81,2.53-3.77,7.61-4.91,11.52-2.53Z"/><path class="l" d="M37.71,116.53c1.76,4.23-.15,9.07-4.26,11-.12.05-.23.11-.35.16l-15.03,6.23c-.12.05-.24.1-.36.14-.05-.12-.11-.23-.16-.35l-6.23-15.03c-.05-.12-.1-.24-.14-.36-1.55-4.27.52-9.03,4.76-10.79,2.18-.9,4.51-.84,6.53,0,1.91.79,3.53,2.27,4.46,4.26,4.27-1.55,9.04.52,10.79,4.75Z"/><path class="j" d="M87.32,2.26c3.37,3.11,3.67,8.3.75,11.77-.08.1-.17.19-.25.29l-11.03,11.97c-.09.1-.18.19-.27.28-.1-.08-.19-.17-.29-.25l-11.97-11.03c-.1-.09-.19-.18-.28-.27-3.2-3.22-3.32-8.42-.21-11.79,1.6-1.73,3.75-2.66,5.93-2.75,2.06-.08,4.15.58,5.84,1.99,3.22-3.2,8.42-3.32,11.79-.22Z"/></svg>